HIERARCHY
ROOT Hips
{
    OFFSET   0.000000   0.000000   0.000000
    CHANNELS 6 Xposition Yposition Zposition Zrotation Xrotation Yrotation
    JOINT Chest
    {
        OFFSET   0.000000   8.007230   0.000000
        CHANNELS 3 Zrotation Xrotation Yrotation
        JOINT Chest2
        {
            OFFSET   0.000000  22.077100   0.000000
            CHANNELS 3 Zrotation Xrotation Yrotation
            JOINT Neck
            {
                OFFSET   0.000000  23.255100   0.000000
                CHANNELS 3 Zrotation Xrotation Yrotation
                JOINT Head
                {
                    OFFSET   0.000000  14.370100   1.956600
                    CHANNELS 3 Zrotation Xrotation Yrotation
                    End Site
                    {
                        OFFSET   0.000000  19.566000   0.000000
                    }
                }
            }
            JOINT LeftCollar
            {
                OFFSET   3.911900  19.017000  -0.467063
                CHANNELS 3 Zrotation Xrotation Yrotation
                JOINT LeftShoulder
                {
                    OFFSET  10.383700   0.000000   0.000000
                    CHANNELS 3 Zrotation Xrotation Yrotation
                    JOINT LeftElbow
                    {
                        OFFSET  26.662100   0.001193   0.000980
                        CHANNELS 3 Zrotation Xrotation Yrotation
                        JOINT LeftWrist
                        {
                            OFFSET  28.869000  -0.000059  -0.000082
                            CHANNELS 3 Zrotation Xrotation Yrotation
                            JOINT LeftFinger0
                            {
                                OFFSET   2.044650  -2.323450   3.252850
                                CHANNELS 3 Zrotation Xrotation Yrotation
                                JOINT LeftFinger01
                                {
                                    OFFSET   3.088130   0.000000   0.000000
                                    CHANNELS 3 Zrotation Xrotation Yrotation
                                    JOINT LeftFinger02
                                    {
                                        OFFSET   2.639460   0.000000   0.000000
                                        CHANNELS 3 Zrotation Xrotation Yrotation
                                        End Site
                                        {
                                            OFFSET   2.582190   0.000000   0.000000
                                        }
                                    }
                                }
                            }
                            JOINT LeftFinger1
                            {
                                OFFSET   8.364480   0.000000   3.252850
                                CHANNELS 3 Zrotation Xrotation Yrotation
                                JOINT LeftFinger11
                                {
                                    OFFSET   4.646930   0.000000   0.000000
                                    CHANNELS 3 Zrotation Xrotation Yrotation
                                    JOINT LeftFinger12
                                    {
                                        OFFSET   2.323470   0.000000   0.000000
                                        CHANNELS 3 Zrotation Xrotation Yrotation
                                        End Site
                                        {
                                            OFFSET   2.273050   0.000000   0.000000
                                        }
                                    }
                                }
                            }
                            JOINT LeftFinger2
                            {
                                OFFSET   8.364490   0.000016   1.078090
                                CHANNELS 3 Zrotation Xrotation Yrotation
                                JOINT LeftFinger21
                                {
                                    OFFSET   5.111610   0.000000   0.000000
                                    CHANNELS 3 Zrotation Xrotation Yrotation
                                    JOINT LeftFinger22
                                    {
                                        OFFSET   2.788150   0.000016   0.000000
                                        CHANNELS 3 Zrotation Xrotation Yrotation
                                        End Site
                                        {
                                            OFFSET   2.727660   0.000000   0.000000
                                        }
                                    }
                                }
                            }
                            JOINT LeftFinger3
                            {
                                OFFSET   7.899780   0.000015  -1.078090
                                CHANNELS 3 Zrotation Xrotation Yrotation
                                JOINT LeftFinger31
                                {
                                    OFFSET   4.646930   0.000000   0.000000
                                    CHANNELS 3 Zrotation Xrotation Yrotation
                                    JOINT LeftFinger32
                                    {
                                        OFFSET   2.323470   0.000000   0.000000
                                        CHANNELS 3 Zrotation Xrotation Yrotation
                                        End Site
                                        {
                                            OFFSET   2.273050   0.000000   0.000000
                                        }
                                    }
                                }
                            }
                            JOINT LeftFinger4
                            {
                                OFFSET   7.435090   0.000000  -3.252850
                                CHANNELS 3 Zrotation Xrotation Yrotation
                                JOINT LeftFinger41
                                {
                                    OFFSET   3.717550   0.000000   0.000000
                                    CHANNELS 3 Zrotation Xrotation Yrotation
                                    JOINT LeftFinger42
                                    {
                                        OFFSET   1.858770   0.000000   0.000000
                                        CHANNELS 3 Zrotation Xrotation Yrotation
                                        End Site
                                        {
                                            OFFSET   1.818440   0.000000   0.000000
                                        }
                                    }
                                }
                            }
                        }
                    }
                }
            }
            JOINT RightCollar
            {
                OFFSET  -3.911910  19.017000  -0.467062
                CHANNELS 3 Zrotation Xrotation Yrotation
                JOINT RightShoulder
                {
                    OFFSET -10.383700   0.000014   0.000000
                    CHANNELS 3 Zrotation Xrotation Yrotation
                    JOINT RightElbow
                    {
                        OFFSET -26.662100   0.001225   0.001091
                        CHANNELS 3 Zrotation Xrotation Yrotation
                        JOINT RightWrist
                        {
                            OFFSET -28.869000  -0.000020  -0.000085
                            CHANNELS 3 Zrotation Xrotation Yrotation
                            JOINT RightFinger0
                            {
                                OFFSET  -2.044650  -2.323490   3.252850
                                CHANNELS 3 Zrotation Xrotation Yrotation
                                JOINT RightFinger01
                                {
                                    OFFSET  -3.088130   0.000000   0.000000
                                    CHANNELS 3 Zrotation Xrotation Yrotation
                                    JOINT RightFinger02
                                    {
                                        OFFSET  -2.639460   0.000000   0.000000
                                        CHANNELS 3 Zrotation Xrotation Yrotation
                                        End Site
                                        {
                                            OFFSET  -2.582190   0.000000   0.000000
                                        }
                                    }
                                }
                            }
                            JOINT RightFinger1
                            {
                                OFFSET  -8.364480   0.000000   3.252850
                                CHANNELS 3 Zrotation Xrotation Yrotation
                                JOINT RightFinger11
                                {
                                    OFFSET  -4.646930   0.000000   0.000000
                                    CHANNELS 3 Zrotation Xrotation Yrotation
                                    JOINT RightFinger12
                                    {
                                        OFFSET  -2.323470   0.000000   0.000000
                                        CHANNELS 3 Zrotation Xrotation Yrotation
                                        End Site
                                        {
                                            OFFSET  -2.273050   0.000000   0.000000
                                        }
                                    }
                                }
                            }
                            JOINT RightFinger2
                            {
                                OFFSET  -8.364480   0.000000   1.078090
                                CHANNELS 3 Zrotation Xrotation Yrotation
                                JOINT RightFinger21
                                {
                                    OFFSET  -5.111620   0.000000   0.000000
                                    CHANNELS 3 Zrotation Xrotation Yrotation
                                    JOINT RightFinger22
                                    {
                                        OFFSET  -2.788160   0.000000   0.000000
                                        CHANNELS 3 Zrotation Xrotation Yrotation
                                        End Site
                                        {
                                            OFFSET  -2.727660   0.000000   0.000000
                                        }
                                    }
                                }
                            }
                            JOINT RightFinger3
                            {
                                OFFSET  -7.899780   0.000000  -1.078090
                                CHANNELS 3 Zrotation Xrotation Yrotation
                                JOINT RightFinger31
                                {
                                    OFFSET  -4.646930   0.000000   0.000000
                                    CHANNELS 3 Zrotation Xrotation Yrotation
                                    JOINT RightFinger32
                                    {
                                        OFFSET  -2.323470   0.000000   0.000000
                                        CHANNELS 3 Zrotation Xrotation Yrotation
                                        End Site
                                        {
                                            OFFSET  -2.273050   0.000000   0.000000
                                        }
                                    }
                                }
                            }
                            JOINT RightFinger4
                            {
                                OFFSET  -7.435090   0.000000  -3.252850
                                CHANNELS 3 Zrotation Xrotation Yrotation
                                JOINT RightFinger41
                                {
                                    OFFSET  -3.717550   0.000000   0.000000
                                    CHANNELS 3 Zrotation Xrotation Yrotation
                                    JOINT RightFinger42
                                    {
                                        OFFSET  -1.858760   0.000000   0.000000
                                        CHANNELS 3 Zrotation Xrotation Yrotation
                                        End Site
                                        {
                                            OFFSET  -1.818440   0.000000   0.000000
                                        }
                                    }
                                }
                            }
                        }
                    }
                }
            }
        }
    }
    JOINT LeftHip
    {
        OFFSET   9.783030   0.000000   0.000000
        CHANNELS 3 Zrotation Xrotation Yrotation
        JOINT LeftKnee
        {
            OFFSET   0.000063 -41.789100   0.000608
            CHANNELS 3 Zrotation Xrotation Yrotation
            JOINT LeftAnkle
            {
                OFFSET   0.000048 -41.133200  -0.000184
                CHANNELS 3 Zrotation Xrotation Yrotation
                JOINT LeftToe
                {
                    OFFSET   0.000000  -6.358960  14.674500
                    CHANNELS 3 Zrotation Xrotation Yrotation
                    End Site
                    {
                        OFFSET   0.000000   0.000000   3.913200
                    }
                }
            }
        }
    }
    JOINT RightHip
    {
        OFFSET  -9.783030   0.000000   0.000000
        CHANNELS 3 Zrotation Xrotation Yrotation
        JOINT RightKnee
        {
            OFFSET   0.000071 -41.789100   0.001239
            CHANNELS 3 Zrotation Xrotation Yrotation
            JOINT RightAnkle
            {
                OFFSET   0.000037 -41.133200  -0.000166
                CHANNELS 3 Zrotation Xrotation Yrotation
                JOINT RightToe
                {
                    OFFSET   0.000000  -6.358960  14.674500
                    CHANNELS 3 Zrotation Xrotation Yrotation
                    End Site
                    {
                        OFFSET   0.000000   0.000000   3.913200
                    }
                }
            }
        }
    }
}
MOTION
Frames: 5
Frame Time:   0.016667
 -0.341934  90.003200  -0.073355  -1.885380 -11.961800  -6.891510   0.839196   7.698980  -1.640520   1.929850  15.369400  -3.443120   2.992050   3.790900  -0.197967   4.975710   7.624240   4.507380  -4.482620  -0.207184   5.226540 -70.160700  -6.313560 -30.150900  20.381000  -9.313990 -60.698200   6.620380   6.235520  -9.271580  43.403000  35.048600 -75.642600   1.871340   0.003769  -0.000035   5.935680   0.001154  -0.007696 -10.619000   2.777930 -14.493400  -8.977320   0.001163  -0.001678  -6.284140   0.001084  -0.002663 -16.705600   1.027790  -3.423220 -16.736300   0.002540  -0.005646 -11.146400   0.001284  -0.001168 -12.031200   0.110950  -0.521704 -12.031700   0.000361  -0.005381  -8.013140   0.003041  -0.002155 -14.835900  -2.165290   8.116370 -22.484900  -0.000299  -0.006402 -14.974900   0.010076   0.002814   8.966010   1.864960   8.546050  66.001700 -14.000500  27.271800 -20.244500 -18.128700  55.410700 -21.420100  11.555400  18.176500 -37.559600  25.726700  67.358700   1.844790   0.000041   0.000120  -4.077610  -0.000527  -0.004661  10.327400   0.744539   4.081080   8.471490   0.011899   0.000405   5.930040   0.004014  -0.001115   4.885830  -0.532828  -6.198500   4.914790   0.014200   0.000620   3.273260   0.006476   0.010525   8.966770  -2.186820 -13.596700   9.227750   0.013029   0.001300   6.145670   0.000370   0.000789  13.903200  -5.195890 -20.083800  22.236800  -0.002116   0.004367  14.809700  -0.000147   0.002891   1.294490  13.473800   5.098160  -0.444753   2.219520  20.278600  -5.676230  -4.961970   5.999350   0.000000   0.000000  -0.000000   0.983026  12.986300  -7.833770  -0.181779   1.847020  -5.827830  -9.305230   0.455781   4.581660  -0.000000   0.000000   0.000000
 -0.342238  90.002800  -0.066836  -1.861930 -11.934800  -6.813340   0.837788   7.674100  -1.636280   1.924880  15.319800  -3.433560   2.945770   3.748610  -0.192722   4.897510   7.540930   4.605870  -4.454510  -0.253409   5.217190 -69.906200  -6.044470 -30.257300  20.436800  -9.496130 -60.640100   6.585370   6.365280  -9.302860  43.297000  34.986100 -75.599600   1.773850   0.003621  -0.000069   5.886920   0.001101  -0.007840 -10.571000   2.761110 -14.474000  -8.935830   0.001153  -0.001823  -6.255110   0.001066  -0.002759 -16.677300   1.028630  -3.428250 -16.708000   0.002552  -0.005804 -11.127500   0.001382  -0.001320 -12.004300   0.112813  -0.530886 -12.004800   0.000348  -0.005525  -7.995220   0.003089  -0.002249 -14.822300  -2.164990   8.123370 -22.464100  -0.000318  -0.006648 -14.961100   0.010205   0.002794   8.982240   1.806010   8.536570  65.875200 -13.966700  27.191100 -20.325900 -18.128400  55.501100 -21.422400  11.589800  18.147600 -37.604400  25.790800  67.412000   1.844210  -0.000213   0.000130  -4.077900  -0.000581  -0.004658  10.445400   0.769441   4.170340   8.569250   0.012427   0.000529   5.998470   0.004051  -0.001116   4.999050  -0.538149  -6.122110   5.027940   0.014375   0.000716   3.348610   0.006457   0.010996   9.072100  -2.203820 -13.535300   9.334050   0.013058   0.001500   6.216450   0.000367   0.000906  14.079000  -5.215450 -19.918300  22.494000  -0.002302   0.004717  14.981000  -0.000287   0.003180   1.285580  13.444800   5.080010  -0.432146   2.211810  20.244300  -5.684240  -4.949880   5.981450   0.000000   0.000000   0.000000   0.980879  12.988800  -7.837080  -0.175560   1.823730  -5.867820  -9.306960   0.450754   4.545980   0.000000   0.000000  -0.000000
 -0.342546  90.002400  -0.060185  -1.837830 -11.902300  -6.732890   0.834223   7.644880  -1.632350   1.915790  15.261600  -3.424230   2.894810   3.699870  -0.186923   4.811420   7.444890   4.722780  -4.431490  -0.295480   5.212720 -69.695100  -5.828350 -30.338200  20.521500  -9.597080 -60.611500   6.591920   6.383030  -9.292650  43.299300  34.959100 -75.527300   1.723280   0.003455  -0.000044   5.861630   0.001055  -0.008012 -10.625600   2.769440 -14.431500  -8.980480   0.001148  -0.001975  -6.286370   0.001050  -0.002847 -16.729900   1.019690  -3.387370 -16.759900   0.002553  -0.005962 -11.162100   0.001481  -0.001474 -12.043700   0.114116  -0.536597 -12.044300   0.000333  -0.005653  -8.021540   0.003124  -0.002343 -14.866100  -2.180390   8.131540 -22.531200  -0.000333  -0.006897 -15.005800   0.010332   0.002770   8.997250   1.745970   8.538370  65.723400 -13.882900  27.086600 -20.427700 -18.123400  55.589700 -21.442500  11.635000  18.100100 -37.613600  25.933200  67.583000   1.855920  -0.000485   0.000065  -4.072050  -0.000637  -0.004629  10.610300   0.793111   4.232650   8.705300   0.012932   0.000657   6.093700   0.004099  -0.001115   5.148720  -0.547885  -6.050540   5.177780   0.014542   0.000819   3.448400   0.006433   0.011475   9.205290  -2.220190 -13.434300   9.467400   0.013082   0.001685   6.305270   0.000362   0.000999  14.313800  -5.264220 -19.768300  22.849300  -0.002486   0.005090  15.217600  -0.000394   0.003455   1.276650  13.415400   5.057340  -0.419022   2.199370  20.206300  -5.691180  -4.937370   5.967020   0.000000   0.000000   0.000000   0.975269  12.972900  -7.837790  -0.165564   1.817470  -5.925400  -9.309570   0.441850   4.523130  -0.000000   0.000000   0.000000
 -0.342877  90.002300  -0.053085  -1.810230 -11.864100  -6.646380   0.826560   7.611440  -1.627360   1.898550  15.195100  -3.412210   2.839630   3.642880  -0.180546   4.718050   7.332380   4.854930  -4.410120  -0.340422   5.207670 -69.491400  -5.612800 -30.369500  20.577500  -9.634960 -60.594900   6.620570   6.386430  -9.243200  43.374500  34.942400 -75.482200   1.554030   0.003281   0.000000   5.777020   0.000999  -0.008184 -10.871200   2.824550 -14.394100  -9.186580   0.001145  -0.002133  -6.430640   0.001033  -0.002932 -16.938400   1.008640  -3.305090 -16.967300   0.002555  -0.006123 -11.300200   0.001584  -0.001626 -12.227300   0.116909  -0.546788 -12.228100   0.000317  -0.005775  -8.143910   0.003163  -0.002436 -15.040300  -2.204120   8.136740 -22.796100  -0.000346  -0.007152 -15.182200   0.010456   0.002743   9.015520   1.683880   8.542210  65.542800 -13.753700  26.943000 -20.474300 -18.101700  55.683500 -21.498800  11.684200  18.020200 -37.608500  26.123700  67.814200   1.937910  -0.000781   0.000000  -4.031070  -0.000694  -0.004602  10.854000   0.822397   4.288210   8.905900   0.013414   0.000787   6.234120   0.004143  -0.001106   5.365460  -0.565547  -5.991290   5.395160   0.014696   0.000927   3.593160   0.006409   0.011958   9.411490  -2.246030 -13.291400   9.674010   0.013093   0.001875   6.442890   0.000359   0.001336  14.626900  -5.323860 -19.555500  23.320600  -0.002659   0.005482  15.531500  -0.000492   0.003765   1.264870  13.373600   5.042900  -0.404362   2.191430  20.157800  -5.695910  -4.923840   5.953950   0.000000   0.000000   0.000000   0.967165  12.941400  -7.837900  -0.155821   1.816400  -5.988770  -9.312440   0.430740   4.500160  -0.000000   0.000000  -0.000000
 -0.343114  90.003500  -0.045330  -1.775310 -11.821300  -6.549890   0.814678   7.573910  -1.620950   1.872190  15.120500  -3.396530   2.778270   3.574950  -0.173359   4.614150   7.198070   5.004760  -4.389820  -0.388027   5.192080 -69.283000  -5.388430 -30.323300  20.635200  -9.596510 -60.577100   6.817500   6.245180  -9.135470  43.674800  35.137000 -75.590300   1.064320   0.003193   0.000052   5.532160   0.000959  -0.008260 -11.347800   2.946000 -14.385400  -9.589010   0.001136  -0.002215  -6.712310   0.001008  -0.003020 -17.316600   1.006240  -3.207600 -17.344900   0.002560  -0.006289 -11.551700   0.001637  -0.001772 -12.576500   0.133022  -0.615826 -12.577600   0.000295  -0.005896  -8.376720   0.003224  -0.002529 -15.373100  -2.222490   8.039580 -23.295200  -0.000357  -0.007417 -15.514600   0.010578   0.002712   9.043290   1.620540   8.547990  65.321000 -13.577900  26.745400 -20.483900 -18.027900  55.770000 -21.584600  11.749100  17.894500 -37.663000  26.343400  68.038300   2.061570  -0.000945   0.000025  -3.969240  -0.000721  -0.004609  11.206200   0.863906   4.357060   9.195790   0.013878   0.000853   6.437050   0.004163  -0.001072   5.674340  -0.593549  -5.950650   5.705520   0.014836   0.000983   3.799860   0.006391   0.012440   9.718120  -2.288070 -13.106800   9.981560   0.013081   0.001981   6.647720   0.000366   0.003635  15.025700  -5.374510 -19.215800  23.906700  -0.002852   0.005687  15.921800  -0.000623   0.004155   1.248210  13.306200   5.041800  -0.387283   2.202010  20.088300  -5.698720  -4.907900   5.940420   0.000000   0.000000   0.000000   0.957362  12.907800  -7.838190  -0.150245   1.816310  -6.051510  -9.314830   0.416511   4.467810   0.000000   0.000000  -0.000000
